<svg width="18" height="31" viewBox="0 0 18 31" fill="none" xmlns="http://www.w3.org/2000/svg">
<path d="M0.25 5H3.7V0.299998L10.2 -1.55V5H16.3V10.5H10.2V20.1C10.2 21.8333 10.3667 23.0833 10.7 23.85C11.0667 24.5833 11.7333 24.95 12.7 24.95C13.3667 24.95 13.9333 24.8833 14.4 24.75C14.9 24.6167 15.45 24.4167 16.05 24.15L17.2 29.15C16.3 29.5833 15.25 29.95 14.05 30.25C12.85 30.55 11.6333 30.7 10.4 30.7C8.1 30.7 6.4 30.1167 5.3 28.95C4.23333 27.75 3.7 25.8 3.7 23.1V10.5H0.25V5Z" fill="white"/>
</svg>
