<svg width="28" height="26" viewBox="0 0 28 26" fill="none" xmlns="http://www.w3.org/2000/svg">
<path d="M23.0781 12.1041C24.097 10.8833 24.6983 9.21916 24.6983 7.44453C24.6983 3.77746 22.1499 0.793945 19.0178 0.793945C16.8449 0.793945 14.9548 2.23058 14.0001 4.33449C13.0455 2.23058 11.1554 0.793945 8.98254 0.793945C5.8501 0.793945 3.30202 3.77746 3.30202 7.44453C3.30202 9.22324 3.90268 10.8847 4.92191 12.1038C3.1403 12.9415 0 14.5125 0 19.2425V20.9877H1.74526H5.35822C5.14385 21.6995 5.01703 22.5163 5.01703 23.4604V25.2057H6.76228H13.9481H14.0508H21.2366H22.9818V23.4604C22.9818 22.5163 22.855 21.6995 22.6406 20.9877H26.2547H28V19.2425C28 14.5128 24.8597 12.9418 23.0781 12.1041ZM6.17268 19.2425H1.74526C1.74526 13.9872 6.36058 13.9887 7.38476 12.6146L7.50198 11.988C6.06302 11.2585 5.04728 9.50073 5.04728 7.44424C5.04728 4.73531 6.8094 2.53891 8.98254 2.53891C10.5219 2.53891 11.8506 3.64366 12.4966 5.24958C10.0916 6.02331 8.31905 8.60454 8.31905 11.6622C8.31905 13.4409 8.91971 15.1024 9.93894 16.3212C8.84815 16.8343 7.2495 17.6234 6.17268 19.2425ZM14.0508 23.4604H13.9481H6.76228C6.76228 18.2055 11.3776 18.2066 12.4018 16.8325L12.519 16.206C11.08 15.4765 10.0643 13.7187 10.0643 11.6622C10.0643 8.9533 11.8264 6.7569 13.9996 6.7569C16.1727 6.7569 17.9348 8.9533 17.9348 11.6622C17.9348 13.7007 16.9371 15.448 15.5174 16.1885L15.6509 16.9009C16.7745 18.2084 21.2363 18.2936 21.2363 23.4604H14.0508ZM21.8262 19.2425C20.7493 17.6237 19.1504 16.8346 18.0599 16.3218C19.0788 15.101 19.6801 13.4369 19.6801 11.6622C19.6801 8.60454 17.9078 6.02389 15.5034 5.24987C16.1494 3.64366 17.4784 2.53891 19.0178 2.53891C21.1912 2.53891 22.953 4.73531 22.953 7.44424C22.953 9.48299 21.9553 11.23 20.5355 11.9708L20.6691 12.6832C21.7927 13.9907 26.2545 14.0759 26.2545 19.2425H21.8262Z" fill="black"/>
</svg>
